<svg version="1.1" xmlns="http://www.w3.org/2000/svg"
     width="100%" viewBox="104.5 340 783.5 650">
<path fill="#032030" opacity="1.000000" stroke="none"
      d="
M221.468658,961.000000
	C217.653198,955.452148 214.304214,949.905579 210.959930,944.356201
	C197.391632,921.841736 183.945541,899.252441 170.221909,876.833069
	C157.638748,856.276794 144.425400,836.099976 132.129715,815.376221
	C124.673187,802.808655 115.692520,791.145447 109.673607,777.719055
	C106.058838,769.655579 107.228256,764.192139 114.699226,759.306030
	C129.596970,749.562683 144.679306,740.099854 159.745087,730.616028
	C166.214890,726.543335 172.828995,722.699524 179.388214,718.769592
	C180.959000,717.828430 182.522705,716.853149 184.174347,716.072815
	C193.027969,711.889526 198.386597,713.510437 203.565536,721.836243
	C204.881454,723.951660 206.148575,726.109314 207.621567,728.112732
	C210.902390,732.574890 211.796249,732.285889 216.170807,728.686218
	C235.807404,712.528503 253.734787,694.227661 275.320923,680.516663
	C296.677429,666.951538 319.952911,658.653503 345.210999,655.731506
	C372.725433,652.548340 399.699768,655.372009 426.357086,662.089111
	C441.072662,665.797058 455.016357,671.848267 468.786011,678.079834
	C493.792358,689.396729 519.606506,696.469360 547.258301,697.181519
	C566.397400,697.674438 585.529724,698.588196 604.682312,699.005615
	C619.310547,699.324402 633.835815,700.571899 647.903809,705.664673
	C662.607605,710.987549 673.022278,720.261169 678.864624,734.722900
	C679.168030,735.473877 679.543762,736.195618 680.062805,737.311340
	C687.552612,734.933716 693.864075,730.608093 700.433350,726.869080
	C717.061523,717.404968 733.631958,707.838318 750.163208,698.205811
	C761.377197,691.671570 772.366638,684.744629 783.674622,678.380798
	C795.225342,671.880371 806.057190,664.159851 818.611694,659.344910
	C838.760254,651.617432 857.842957,653.420959 873.810303,667.612244
	C894.749207,686.222168 892.836121,716.450623 873.360046,734.406372
	C860.851318,745.938721 846.776001,755.512024 833.393799,765.954407
	C813.844360,781.209167 793.166748,794.883606 773.181335,809.514526
	C751.981934,825.034180 730.542480,840.196655 707.895203,853.466553
	C687.384521,865.484619 666.556335,876.995544 645.258972,887.629761
	C630.368652,895.064880 615.732361,903.010132 601.006653,910.773315
	C582.952637,920.291077 563.719727,923.378296 543.516052,921.719177
	C517.537781,919.585815 492.445465,912.832581 467.048920,907.577759
	C443.243927,902.652161 419.886505,895.920166 396.115784,890.859924
	C384.266235,888.337402 372.601074,885.074707 360.515686,883.584778
	C348.502258,882.103760 337.392670,884.797791 326.613251,889.650635
	C323.131470,891.218140 319.851318,893.244446 316.338776,894.729309
	C313.419220,895.963501 313.120422,897.736328 314.422668,900.227722
	C316.504395,904.210388 318.801422,908.092590 320.671265,912.171387
	C324.522247,920.571777 322.963867,925.541016 315.482178,931.105591
	C307.864716,936.771240 299.735718,941.627869 291.736389,946.698914
	C284.591675,951.228088 277.923096,956.495361 270.212311,960.740051
	C253.979111,961.000000 237.958206,961.000000 221.468658,961.000000
M573.302490,895.797974
	C578.435791,893.858093 583.844177,892.438293 588.656982,889.892517
	C616.138855,875.355225 643.535889,860.654297 670.842651,845.790161
	C683.848206,838.710693 696.866455,831.584473 709.376587,823.683838
	C722.722412,815.255371 735.513611,805.943054 748.477112,796.916321
	C763.091980,786.739563 777.811218,776.698608 792.151123,766.144714
	C808.101440,754.405640 823.638489,742.106262 839.431274,730.151062
	C845.798096,725.331360 852.623962,721.014954 857.894348,714.960327
	C863.978760,707.970581 865.714294,700.149170 861.069214,691.480896
	C857.055359,683.990417 850.813782,680.564453 842.486023,680.177734
	C834.526184,679.808105 827.394043,682.340698 820.541870,685.940735
	C801.106567,696.151855 783.050842,708.690552 763.908020,719.438477
	C746.233765,729.361755 728.796753,739.729309 711.047974,749.541687
	C703.058716,753.958557 695.090881,758.419800 687.221802,763.045410
	C684.360657,764.727234 681.850952,766.964661 680.335999,770.090881
	C669.704102,792.030334 651.395630,802.192871 627.826477,804.153748
	C607.366150,805.855896 586.901917,805.574463 566.430359,804.171753
	C549.155457,802.988037 531.833069,802.383240 514.592590,800.841858
	C493.999298,799.000732 474.069641,800.857483 454.837219,808.801331
	C447.553619,811.809692 442.625763,809.792725 439.219910,802.803162
	C436.260529,796.729919 438.201233,790.709717 444.452423,787.110840
	C446.605438,785.871338 448.903564,784.774841 451.266235,784.025452
	C474.124786,776.774109 497.504211,774.500549 521.319824,777.212341
	C556.174927,781.181091 591.108337,781.364624 626.083069,779.583496
	C635.863342,779.085388 644.530396,776.067139 651.329590,768.363220
	C661.415894,756.934692 659.224060,740.120667 646.279663,732.077881
	C638.845703,727.458984 630.604065,725.788147 622.015076,725.334106
	C587.122437,723.489624 552.130432,723.329041 517.382263,719.032532
	C505.760132,717.595520 494.470306,714.918518 483.444550,710.980591
	C460.732391,702.868713 439.105896,691.940002 415.749084,685.451843
	C400.048431,681.090393 384.035675,678.743958 367.927521,678.712158
	C353.686554,678.684021 339.500305,680.830566 325.605682,684.923767
	C302.304535,691.787842 282.160309,703.761841 263.922394,719.597534
	C252.252533,729.730347 241.000916,740.428284 228.136017,749.117615
	C224.768799,751.391846 223.868759,753.627686 226.238876,757.296204
	C233.910095,769.169922 241.467758,781.120056 248.880814,793.156738
	C254.801849,802.770813 260.289337,812.652893 266.251312,822.240601
	C276.265320,838.344421 286.693115,854.194092 296.514893,870.412231
	C298.985504,874.491760 300.881775,874.468140 304.703796,872.679993
	C312.970917,868.812256 321.091431,864.529419 329.891144,861.899170
	C346.449585,856.949890 363.023163,857.807556 379.753143,861.303284
	C406.461060,866.883850 432.740967,874.212769 459.320129,880.318054
	C482.653229,885.677734 505.870636,891.507568 529.537781,895.315735
	C543.855652,897.619690 558.109314,900.592590 573.302490,895.797974
M286.224243,920.649536
	C294.359344,915.846619 294.571472,915.606140 290.078461,908.233215
	C276.680634,886.247559 263.121674,864.360107 249.655533,842.416016
	C235.566849,819.457581 221.496613,796.487732 207.451538,773.502625
	C201.906982,764.428894 196.501968,755.269531 190.916901,746.221069
	C189.708282,744.262939 188.686142,741.334656 185.244797,743.606018
	C169.990021,753.674377 154.721756,763.722961 139.385391,773.666138
	C137.045273,775.183228 137.225388,776.520630 138.508926,778.555115
	C141.790085,783.756042 144.905487,789.061218 148.133179,794.296265
	C157.202164,809.005493 166.291626,823.702148 175.378159,838.400513
	C185.701187,855.099182 196.058701,871.776489 206.348358,888.495667
	C217.852036,907.187317 229.412842,925.845764 240.679001,944.680115
	C243.267120,949.006958 245.375214,948.489014 248.899429,946.031982
	C261.041870,937.566772 273.364166,929.359497 286.224243,920.649536
z"/>
    <path fill="#032030" opacity="1.000000" stroke="none"
          d="
M496.355469,384.849396
	C500.929718,397.925476 505.452484,410.609070 509.825104,423.344208
	C510.924805,426.547119 512.477356,426.855591 515.457886,425.608459
	C529.094177,419.902649 542.686462,414.051514 556.539551,408.912811
	C585.591003,398.136383 615.537842,393.565582 646.645874,395.417755
	C669.309570,396.767212 691.321289,400.651550 712.334351,408.977356
	C739.812256,419.864594 763.778931,436.332520 783.107971,458.739471
	C794.823547,472.320679 804.808472,487.152557 811.442078,504.245850
	C817.638367,520.212463 821.819885,536.513550 823.772705,553.389038
	C825.772461,570.669922 823.089172,587.585876 818.216064,604.191956
	C811.940857,625.575806 800.810181,644.053223 784.626648,659.349426
	C769.875793,673.291687 752.601624,682.990784 733.149292,688.820129
	C709.658020,695.859802 686.025208,697.802307 661.747131,692.713684
	C646.909973,689.603943 632.395447,685.488586 617.780090,681.616211
	C604.787415,678.173706 591.745972,674.484375 578.270142,673.617676
	C570.511841,673.118774 562.692627,673.785828 555.024048,675.906128
	C546.210815,678.342834 537.385681,680.071472 527.958130,678.552917
	C512.035339,675.988159 497.267639,656.877686 500.799042,640.533997
	C503.835724,626.479919 512.355408,616.112244 525.082886,609.962891
	C544.134644,600.757935 564.332214,597.739990 585.367615,601.362366
	C589.908630,602.144348 594.514526,602.549438 599.991760,603.242126
	C598.075684,596.690430 596.410461,590.659302 594.499817,584.833984
	C591.735291,576.405273 591.733398,567.877625 593.317566,559.687378
	C595.871094,546.485413 600.098083,533.764160 608.596924,522.736328
	C621.472717,506.028931 637.227783,494.309174 658.432068,490.500214
	C664.041443,489.492584 669.550720,488.323883 675.228943,488.909058
	C684.694702,489.884644 688.641418,496.565125 684.516174,504.152985
	C682.976501,506.985107 680.611267,507.969482 677.642639,508.393951
	C667.761414,509.806793 657.904724,511.126556 648.847595,515.957214
	C628.521179,526.798340 617.445496,543.522705 615.961792,566.519104
	C615.131470,579.388550 616.839417,591.655457 623.977173,602.872986
	C627.825989,608.921814 633.348389,612.711487 639.837158,614.134644
	C650.062744,616.377502 659.884216,620.159485 670.402161,621.341064
	C691.373840,623.697083 710.845154,620.207947 728.409241,608.047363
	C732.653992,605.108459 735.823242,600.938049 740.162903,598.043457
	C744.157349,595.379211 747.500183,595.560669 750.945435,598.751831
	C755.256042,602.744446 756.394836,606.950439 753.989746,611.192078
	C751.492065,615.597168 748.029968,619.380676 744.165466,622.432678
	C723.947327,638.400269 700.777588,645.174194 675.136292,643.416260
	C656.570984,642.143433 638.866211,637.022766 621.199829,631.463257
	C599.835327,624.739929 578.148743,619.489197 555.418091,623.162781
	C547.638123,624.420166 540.093689,626.507690 533.284546,630.598877
	C527.878235,633.847229 524.172852,638.234131 524.160278,645.058472
	C524.144470,653.634705 530.684875,658.795654 539.138672,656.675842
	C555.341858,652.612854 571.539734,649.285522 588.470581,652.042847
	C602.778076,654.372986 616.770142,657.753784 630.635986,661.920654
	C652.359497,668.448853 674.235779,674.186523 697.294250,672.819275
	C710.895447,672.012756 723.716614,668.435242 736.419250,663.646423
	C754.321411,656.897461 768.441589,645.301270 779.875732,630.485291
	C793.013000,613.462463 799.837646,593.943726 800.827881,572.300049
	C801.820129,550.613464 797.807312,530.200623 789.379089,510.100189
	C778.487122,484.123901 760.566772,464.268860 738.378662,448.110626
	C723.258850,437.099854 706.047546,429.684662 687.991028,424.413300
	C657.652283,415.556366 626.920227,414.826599 596.021240,420.275940
	C576.590332,423.702789 558.309998,430.956879 540.346558,438.983368
	C534.469238,441.609497 528.404968,443.848206 522.832031,448.430573
	C527.739258,454.904297 531.975891,461.389557 535.433716,468.405853
	C539.573242,476.805359 543.180908,485.374512 545.805969,494.335480
	C546.854492,497.914612 548.527039,498.769989 552.000671,497.499908
	C558.263245,495.210083 564.734619,493.594238 571.326843,492.534576
	C576.142761,491.760498 580.084412,493.753082 580.791443,497.611969
	C581.642151,502.254730 578.694031,504.985016 574.873779,506.229126
	C569.034912,508.130554 562.977844,509.359619 557.018311,510.893036
	C549.401611,512.852905 549.262634,512.859192 549.164551,520.487732
	C549.111572,524.610901 546.513428,529.570190 549.103088,532.608887
	C551.946167,535.944763 556.915405,532.488281 560.997437,532.760986
	C566.469543,533.126587 572.018677,532.617249 577.269043,534.728760
	C581.207581,536.312744 585.345581,537.740112 584.221619,543.409058
	C583.414307,547.480896 578.879883,550.708069 573.821655,549.933777
	C566.674744,548.839783 559.502808,549.521606 552.381531,548.964172
	C546.607178,548.512024 543.705017,550.351440 541.345032,556.044800
	C526.765991,591.216431 501.807587,616.401489 466.416199,630.642761
	C433.231293,643.996216 399.484802,645.392761 365.369293,633.841919
	C357.124847,631.050476 349.064178,627.834778 341.676880,623.344055
	C337.371948,620.727173 334.482758,621.294800 331.110260,624.465149
	C324.078583,631.075317 316.990021,637.635986 309.693573,643.949768
	C304.458282,648.479980 300.207275,647.221802 297.622864,640.896545
	C296.162201,637.321716 297.939606,634.679077 300.225006,632.406433
	C306.574127,626.092773 312.637268,619.432373 320.119812,614.385376
	C323.651794,612.003113 324.134033,610.143738 320.853973,606.711975
	C310.324524,595.695190 310.461456,595.516724 296.487274,602.219238
	C291.839752,604.448364 287.325653,606.954346 282.696045,609.222351
	C277.038849,611.993835 272.883759,611.242249 270.951965,607.243958
	C269.011932,603.228516 271.031921,598.058350 275.926941,595.615234
	C283.518921,591.825989 291.188538,588.174072 298.959534,584.770569
	C302.193756,583.354004 303.045471,581.946289 301.892212,578.350647
	C296.585541,561.805115 292.581787,544.965088 292.949951,527.420288
	C293.064423,521.964355 289.622040,518.108093 287.342926,513.803772
	C276.003235,492.387573 267.553070,469.919678 262.194061,446.303711
	C260.339569,438.131531 263.826752,433.174133 271.955170,431.416870
	C277.296753,430.262054 282.534088,431.231781 287.848267,431.561920
	C304.730713,432.610596 321.191498,435.773682 337.328186,440.725555
	C340.749390,441.775360 343.535187,440.737183 346.172058,438.727844
	C365.534637,423.973267 387.706543,415.040985 411.400635,411.719269
	C421.876007,410.250702 425.602173,405.113861 430.437378,397.632477
	C439.247681,384.000549 448.350159,370.342834 461.843781,360.552704
	C462.640930,359.974335 463.259521,359.150665 463.964447,358.444397
	C470.032959,352.364502 477.447479,352.568176 482.903046,359.434235
	C488.856476,366.926788 492.431335,375.789459 496.355469,384.849396
M437.159821,616.775330
	C474.040192,608.448547 500.495819,587.068848 517.656738,553.647705
	C515.614441,551.885681 514.140930,552.410339 512.678833,552.576233
	C509.192810,552.971802 505.529205,552.771240 504.279480,548.975281
	C502.934174,544.889099 505.530975,541.823547 508.930115,540.003113
	C511.679138,538.530823 514.787964,537.598816 517.841064,536.852295
	C524.822998,535.145447 526.750610,531.133240 523.354126,524.308411
	C519.354980,526.666443 515.484924,529.144226 511.891846,532.087646
	C508.832367,534.593933 505.678223,534.614929 503.174835,531.354370
	C500.675171,528.098572 501.398712,521.512695 504.792786,518.996643
	C509.587708,515.442261 513.642334,510.779175 519.381592,508.598541
	C523.778198,506.928070 524.266541,503.845459 523.361145,499.757538
	C522.415588,495.488312 520.803101,491.509918 518.928833,487.614014
	C514.692627,478.808136 510.439911,470.046143 504.341156,462.263611
	C500.157959,456.925446 496.396973,451.315063 494.217468,444.644867
	C488.227814,426.313904 482.077026,408.024170 474.165833,390.396301
	C473.117523,388.060455 473.004303,385.155487 470.040283,383.584106
	C464.839539,387.565430 460.822662,392.679443 457.030670,397.865662
	C450.842163,406.329468 445.295166,415.242432 440.185974,424.409271
	C437.458405,429.302979 433.526123,432.004395 427.787445,432.281769
	C421.976044,432.562714 416.086365,432.747772 410.401611,433.852783
	C388.923920,438.027588 369.601471,446.962341 352.902863,461.230896
	C348.911957,464.640991 344.960663,465.898407 339.635406,464.207733
	C324.728027,459.474792 309.681305,455.154449 293.928741,454.205292
	C291.706085,454.071381 289.524506,452.334045 287.177002,453.962921
	C287.102234,454.466644 286.916229,454.964233 286.984802,455.423828
	C287.106873,456.241699 287.333130,457.053680 287.602112,457.838562
	C293.705475,475.649475 300.349396,493.213837 310.597321,509.175354
	C313.830994,514.211914 315.240112,519.746338 315.057373,525.795776
	C314.831085,533.287231 314.747467,540.830444 316.326141,548.201050
	C318.128906,556.618042 319.412537,565.243591 324.485413,572.602051
	C325.790802,574.495605 327.035828,576.041626 329.697510,575.490601
	C335.462341,574.297180 341.320251,574.791992 347.134216,574.837158
	C353.324066,574.885193 356.675018,578.109802 356.553192,583.387146
	C356.451233,587.802612 353.576630,589.814270 347.236877,590.126038
	C344.400574,590.265564 341.329163,589.411926 338.732971,591.490906
	C343.217743,598.044434 343.242584,598.013123 349.565552,595.281189
	C352.458710,594.031128 355.368378,592.655762 358.412842,591.958679
	C362.723083,590.971680 366.421478,593.767883 367.578583,598.459229
	C368.570099,602.479187 366.041992,604.215759 362.810089,605.399658
	C362.033264,605.684204 361.222198,605.909851 360.883942,607.407227
	C365.181732,610.507812 370.342773,612.539673 375.427368,613.895569
	C395.448975,619.234802 415.777191,620.649719 437.159821,616.775330
z"/>
    <path fill="#032030" opacity="1.000000" stroke="none"
          d="
M466.616547,595.900452
	C461.455658,598.346802 456.455109,597.613831 451.569336,596.621277
	C447.576477,595.810059 444.856445,596.411377 442.166199,599.990479
	C434.406494,610.314209 417.515717,613.454651 406.398651,602.865723
	C402.811005,599.448425 401.827393,595.424866 404.419952,592.284790
	C407.389832,588.687561 410.722931,588.964478 414.587219,591.310608
	C418.496613,593.684143 422.880524,594.901611 427.354797,592.507202
	C430.085754,591.045837 432.798279,588.982483 432.383698,585.683777
	C431.947784,582.215271 430.109528,579.066895 426.404602,577.709656
	C424.066010,576.853027 421.749054,576.057312 419.645660,574.593018
	C413.523468,570.331177 413.281403,563.132324 419.679626,559.170959
	C425.329651,555.672974 431.515686,553.006653 437.957642,551.296143
	C442.417175,550.112122 447.053619,550.272217 450.420715,554.165955
	C453.777008,558.047241 452.272430,562.293945 450.744843,566.410095
	C450.109100,568.123230 449.104553,569.722412 448.641632,571.472229
	C447.555542,575.577698 448.656311,579.177368 452.243530,581.524170
	C456.151733,584.080933 459.611633,582.318909 462.591919,579.549072
	C464.445129,577.826721 465.322754,575.461060 466.187408,573.075745
	C468.259094,567.360535 472.172791,564.733337 476.090240,566.153076
	C479.732635,567.473022 482.006531,573.334961 480.795380,578.187805
	C478.815796,586.119202 473.623596,591.504517 466.616547,595.900452
z"/>
    <path fill="#032030" opacity="1.000000" stroke="none"
          d="
M490.103577,507.734772
	C486.124664,529.419067 458.366547,542.536743 440.381165,527.009033
	C436.820221,523.934692 435.826935,520.520020 437.437805,516.401184
	C438.952881,512.527344 443.475250,510.703094 447.937897,511.919708
	C450.012543,512.485352 451.962921,513.497131 454.028717,514.106506
	C462.596893,516.633667 469.595245,513.124329 472.771118,504.788147
	C472.830200,504.633057 472.865082,504.468689 472.924835,504.313904
	C475.111908,498.649414 479.259613,495.898438 484.303192,496.765320
	C488.612000,497.505890 490.215851,500.409454 490.103577,507.734772
z"/>
    <path fill="#032030" opacity="1.000000" stroke="none"
          d="
M383.279480,543.363403
	C385.516022,541.483398 386.620026,539.246033 387.783020,537.031860
	C390.264282,532.308105 395.369659,529.799805 399.198730,531.360535
	C403.276733,533.022705 405.418854,538.612427 403.552795,543.827026
	C400.354919,552.763367 394.001923,559.063538 385.509918,562.856628
	C374.377075,567.829346 358.218384,564.401306 350.764252,556.225037
	C348.671265,553.929199 347.164642,551.765259 349.122284,548.782166
	C351.072174,545.810974 353.210205,542.911133 357.378174,543.431030
	C359.175507,543.655151 361.028473,544.061462 362.669800,544.799438
	C369.691315,547.956360 376.447937,547.943726 383.279480,543.363403
z"/>
</svg>
