<svg version="1.1" id="Layer_1" xmlns="http://www.w3.org/2000/svg" xmlns:xlink="http://www.w3.org/1999/xlink" x="0px" y="0px"
     width="100%" viewBox="90 43 853 201" enable-background="new 0 0 1024 304" xml:space="preserve">
<path fill="#032030" opacity="1.000000" stroke="none"
      d="
M921.755493,208.931244
	C920.625916,209.705307 919.824890,210.323883 918.935364,210.762939
	C910.703735,214.826035 904.575623,211.448318 903.972656,202.352036
	C903.532715,195.714676 903.754639,189.042099 902.724426,182.431656
	C900.497864,168.145844 896.762878,154.436508 887.821045,142.685684
	C885.712708,139.914978 883.359314,137.361664 880.398804,135.591232
	C877.971497,136.621078 877.907593,138.897812 876.983459,140.561813
	C874.744019,144.594101 872.477234,148.060760 866.988892,148.368622
	C862.663330,148.611252 854.015015,161.179840 854.696594,165.343658
	C855.148438,168.104462 857.092957,169.685806 859.636658,170.447266
	C862.502075,171.305008 865.443298,171.907242 868.317932,172.737000
	C871.416443,173.631378 874.160095,175.067703 875.989197,177.932953
	C883.872742,190.282410 874.744568,209.859207 860.227661,211.415192
	C847.432190,212.786652 834.589600,212.189072 821.822571,211.159546
	C810.243591,210.225830 801.897278,197.798264 803.115784,185.136703
	C804.593384,169.782623 812.647583,157.714417 821.664978,146.011826
	C826.744934,139.419113 831.873962,132.856079 836.701721,126.080765
	C838.904297,122.989601 840.592529,119.493744 842.230957,116.046898
	C845.313538,109.561623 846.601868,103.617676 843.644226,95.898903
	C837.489441,79.836349 845.365540,59.954308 859.832275,50.310635
	C873.744385,41.036667 892.627075,41.914059 905.556091,52.439903
	C906.201050,52.964943 907.016418,53.408630 907.415710,54.088074
	C912.637573,62.973602 920.843384,64.843910 930.405701,64.713135
	C937.195374,64.620293 940.271545,68.370178 940.345398,75.177635
	C940.376038,77.999184 940.425476,80.881210 939.925903,83.637764
	C937.154236,98.929871 929.618530,105.745468 914.108459,107.258865
	C904.245239,108.221268 900.119873,114.454643 903.381470,123.919724
	C906.302979,132.397736 912.316711,139.085968 917.163208,146.421936
	C923.942688,156.683807 929.469421,167.392044 930.858215,179.790161
	C932.073853,190.643570 930.442444,200.725159 921.755493,208.931244
M918.362366,98.028549
	C926.386841,95.648903 930.392029,91.003853 929.984741,84.549339
	C929.579041,78.117973 924.795898,73.477386 917.117188,72.303596
	C912.165344,71.546631 908.542725,68.826492 905.628357,64.996140
	C897.965454,54.924969 887.830566,50.344166 875.429138,52.865517
	C861.759827,55.644676 853.977417,64.811127 851.034424,78.262573
	C849.683289,84.437767 849.695679,90.518509 852.735352,96.246582
	C855.015137,100.542587 858.735840,102.312943 863.549133,101.767479
	C868.102600,101.251480 869.405701,97.781487 870.177856,94.085655
	C870.649292,91.828911 870.679321,89.467033 870.773926,87.146927
	C871.039124,80.640350 870.274353,74.190437 869.673828,67.727356
	C869.458252,65.407051 870.195618,63.264233 872.939941,62.953030
	C875.447021,62.668728 876.639160,64.557404 876.982056,66.573830
	C878.769348,77.085999 880.615784,87.672447 878.085938,98.280197
	C876.487671,104.981674 872.146484,109.137245 865.102295,110.524643
	C861.356628,111.262375 857.875061,109.817802 854.027466,110.003769
	C852.528442,113.687080 851.200623,117.434242 849.512207,121.011185
	C843.615051,133.504150 834.240234,143.584045 826.088440,154.517685
	C819.387573,163.505280 813.404114,172.826950 811.710632,184.321320
	C810.230652,194.366150 815.454773,201.970398 825.440247,203.074158
	C835.896179,204.229950 846.410339,203.548630 856.897949,203.476425
	C858.833801,203.463104 860.858032,202.804260 862.678345,202.049942
	C867.766479,199.941544 870.186279,194.240356 869.809021,186.815704
	C869.527100,181.265701 865.449158,180.907242 861.518250,179.995087
	C859.256409,179.470245 856.959656,178.856079 854.870728,177.873642
	C849.471619,175.334442 846.207703,171.149445 846.187683,164.979523
	C846.159363,156.273300 856.122925,142.140640 864.571167,139.422012
	C868.265381,138.233231 870.135010,136.055313 870.854126,132.537460
	C871.319031,130.263107 871.530823,127.934113 872.052063,125.674843
	C873.008728,121.528702 875.036804,120.632523 878.462158,122.884399
	C890.206360,130.605133 899.065735,140.770004 904.022461,154.022736
	C909.250610,168.001114 911.944275,182.500275 912.352356,197.429550
	C912.403748,199.308594 911.694336,201.485245 913.948242,203.105453
	C917.033936,202.343903 918.822754,199.983719 920.189819,197.299652
	C923.194885,191.399384 923.167664,185.098679 922.219238,178.760025
	C920.489929,167.202560 914.342407,157.679031 908.042542,148.220261
	C903.985413,142.128662 899.302795,136.413681 896.316223,129.659897
	C890.680786,116.915901 893.901245,98.959610 914.614746,98.673698
	C915.603088,98.660057 916.588135,98.409607 918.362366,98.028549
z"/>
    <path fill="#032030" opacity="1.000000" stroke="none"
          d="
M591.865112,207.185455
	C580.725220,196.244537 578.378967,182.730682 579.137878,168.332565
	C579.470398,162.025299 580.596741,155.799088 583.061279,149.873901
	C590.624939,131.689270 610.539795,124.777229 627.829163,134.373917
	C628.809509,134.918106 629.654114,135.882904 631.476501,135.587372
	C632.343567,132.045868 631.843140,128.256668 631.890320,124.536446
	C631.981079,117.378593 631.984741,110.217171 631.860413,103.060074
	C631.796570,99.381729 632.966370,97.570679 637.032288,97.685539
	C648.454834,98.008209 647.946594,96.153145 647.949280,108.316307
	C647.956604,140.781784 647.989258,173.247284 647.944702,205.712677
	C647.940491,208.793869 649.224548,212.671616 643.804810,213.056046
	C635.533752,213.642700 634.529053,213.239029 633.025635,206.698715
	C619.517395,216.042191 605.852539,217.834305 591.865112,207.185455
M629.081909,194.439102
	C631.437256,191.989792 632.028992,189.008942 631.996887,185.709045
	C631.910889,176.886002 631.974121,168.061554 631.964783,159.237671
	C631.957214,152.073196 628.343323,147.052628 621.485413,144.641983
	C610.918823,140.927719 601.253601,145.339340 597.341370,156.014557
	C593.682922,165.997116 593.417297,176.281204 596.624695,186.384796
	C601.459717,201.615555 616.628052,205.571243 629.081909,194.439102
z"/>
    <path fill="#032030" opacity="1.000000" stroke="none"
          d="
M428.433289,199.499680
	C427.002411,195.530655 425.545105,191.975037 424.474396,188.306580
	C423.574432,185.223190 421.830811,184.174133 418.663300,184.214508
	C407.004211,184.363190 395.341309,184.361313 383.681854,184.231720
	C380.549683,184.196915 378.800476,185.217209 377.788055,188.272247
	C375.485046,195.221771 372.750671,202.029419 370.494110,208.992752
	C369.565491,211.858215 368.069275,213.226639 365.125244,212.992126
	C361.237213,212.682419 357.205200,213.924118 352.813782,211.881302
	C355.951416,203.336273 358.983734,194.947159 362.108429,186.592590
	C371.962830,160.244812 381.926208,133.937347 391.644409,107.539558
	C393.043518,103.739151 395.030792,102.134315 398.971069,102.664345
	C400.443390,102.862404 401.989532,102.864487 403.459747,102.656700
	C407.277039,102.117172 409.086639,103.889664 410.370361,107.380058
	C417.551453,126.905327 424.928711,146.358429 432.236084,165.837265
	C437.088623,178.772324 441.965485,191.698410 446.758911,204.655350
	C447.606232,206.945709 448.894043,209.160980 448.707642,212.103500
	C444.214447,213.664276 439.590088,213.011215 435.023560,212.744095
	C433.072449,212.629959 432.394958,210.923569 431.835114,209.305771
	C430.746277,206.159241 429.661102,203.011459 428.433289,199.499680
M390.769897,171.018845
	C399.492645,171.018845 408.215393,171.018845 418.092957,171.018845
	C412.309326,154.862045 406.986725,139.993225 401.664124,125.124413
	C401.178284,125.141769 400.692474,125.159126 400.206635,125.176491
	C394.927277,140.078613 389.647888,154.980728 384.400391,169.792862
	C386.545197,171.231369 388.236359,170.961014 390.769897,171.018845
z"/>
    <path fill="#032030" opacity="1.000000" stroke="none"
          d="
M113.149712,207.848846
	C111.101578,210.166336 111.440636,212.985458 111.420464,215.693115
	C111.363419,223.349152 111.282181,231.009079 111.472290,238.660995
	C111.553658,241.935974 110.379662,242.977982 107.158234,243.052917
	C95.976944,243.312973 95.967537,243.414322 95.964775,232.525238
	C95.956848,201.233536 95.925697,169.941742 96.015831,138.650299
	C96.023827,135.876862 94.428482,132.008453 99.758118,131.627762
	C108.595665,130.996506 109.687119,131.430496 110.702667,137.390747
	C111.578568,138.007294 112.242706,137.413467 112.922379,136.982651
	C136.000107,122.354637 157.914536,131.508316 163.820435,158.216919
	C166.166183,168.825211 165.905121,179.390778 163.019485,189.812180
	C155.529495,216.862350 129.186020,219.712357 113.149712,207.848846
M111.445641,187.792160
	C111.378487,189.545944 112.143913,190.999802 113.050896,192.426651
	C120.635880,204.359314 138.784286,204.123276 145.379562,191.644470
	C151.561066,179.948624 151.495850,167.509598 146.644669,155.416000
	C142.261353,144.488754 131.858749,140.564102 121.121964,145.380875
	C115.266441,148.007782 111.006180,151.930984 111.369347,159.454269
	C111.810341,168.589981 111.450264,177.764343 111.445641,187.792160
z"/>
    <path fill="#032030" opacity="1.000000" stroke="none"
          d="
M663.784973,183.851562
	C661.607544,170.556412 662.851074,158.083252 669.440613,146.703278
	C677.005554,133.638931 691.866577,127.726791 707.356750,130.919189
	C719.788879,133.481369 728.934448,144.006058 731.192566,158.621613
	C731.799561,162.550415 731.824951,166.565720 732.240967,170.528320
	C732.693115,174.835907 730.978333,176.405655 726.563293,176.340851
	C712.411560,176.133179 698.254578,176.256531 684.099731,176.294617
	C678.244629,176.310364 678.040649,176.537109 679.257324,182.293549
	C681.109985,191.059189 685.849548,197.603424 694.596130,200.401733
	C703.485779,203.245804 711.272461,200.821167 718.040222,194.548248
	C719.521423,193.175354 720.559082,190.117340 723.031982,191.267670
	C725.820251,192.564713 728.337646,194.696548 730.544495,196.895264
	C731.849426,198.195404 730.152039,199.628998 729.280457,200.769852
	C720.334106,212.481308 708.035156,215.905319 694.190247,213.842514
	C677.253479,211.319061 667.477966,200.788910 663.784973,183.851562
M715.714539,158.840958
	C713.244568,147.248306 706.135071,141.901321 695.213257,143.310547
	C687.229248,144.340698 679.088928,153.083832 680.098450,163.666000
	C691.120361,163.666000 702.213928,163.708359 713.306763,163.634705
	C715.915405,163.617371 715.937439,161.601501 715.714539,158.840958
z"/>
    <path fill="#032030" opacity="1.000000" stroke="none"
          d="
M195.736160,189.149078
	C204.930069,203.966248 221.186066,205.957626 232.830673,193.499954
	C237.915009,188.060623 239.968262,193.757828 243.002960,195.374527
	C246.911591,197.456818 244.178101,199.913132 242.577377,201.816605
	C232.563446,213.724548 219.479080,216.385056 205.045471,213.204041
	C191.514496,210.221954 182.786118,201.394501 179.084518,188.169769
	C175.327438,174.746735 176.275726,161.416641 182.426727,148.773529
	C189.229340,134.791046 203.844070,128.050446 220.638870,130.795105
	C233.096893,132.831055 243.005966,143.933548 245.238495,158.396515
	C245.872620,162.504547 246.273209,166.618073 246.349121,170.799484
	C246.422989,174.869263 245.041306,176.392593 240.860565,176.334015
	C227.370010,176.144989 213.874969,176.271179 200.381668,176.283371
	C192.681396,176.290329 191.664703,177.711853 194.103668,185.098770
	C194.520401,186.360977 195.068863,187.579681 195.736160,189.149078
M229.740479,157.638321
	C228.414688,151.605942 225.321350,146.952621 219.441437,144.494965
	C208.368851,139.866913 196.955856,146.607224 193.888336,159.297943
	C193.023026,162.877838 194.187256,163.773209 197.447540,163.749008
	C207.079315,163.677567 216.712997,163.645660 226.343857,163.765442
	C230.608963,163.818481 231.127609,161.786407 229.740479,157.638321
z"/>
    <path fill="#032030" opacity="1.000000" stroke="none"
          d="
M540.521606,130.379333
	C555.726746,131.811295 563.899536,140.190979 564.194519,155.278076
	C564.539673,172.931030 564.241882,190.595840 564.369629,208.254425
	C564.394775,211.732178 563.022156,212.876556 559.677063,213.013733
	C548.828613,213.458618 548.856750,213.551926 548.860474,202.796448
	C548.865417,188.302536 548.736267,173.807861 548.853027,159.315048
	C548.902527,153.168274 547.206787,147.976273 541.546204,145.068161
	C535.376282,141.898407 529.134766,142.820175 523.534729,146.577988
	C518.801025,149.754517 515.846680,153.968216 515.950134,160.282272
	C516.203857,175.770859 515.818237,191.269272 516.001831,206.760025
	C516.058960,211.576340 514.386169,213.149399 509.617401,213.039444
	C500.034515,212.818481 500.022705,213.037796 500.022675,203.530151
	C500.022675,181.705719 500.157196,159.880035 499.938965,138.057816
	C499.888458,133.005066 501.492096,131.353302 506.542572,131.576202
	C514.561523,131.930084 514.574341,131.639359 515.800232,138.756256
	C522.934448,132.838516 530.794373,129.369492 540.521606,130.379333
z"/>
    <path fill="#032030" opacity="1.000000" stroke="none"
          d="
M333.197815,177.000000
	C333.191528,187.662674 333.087738,197.826706 333.230042,207.987289
	C333.280731,211.606339 331.976501,213.101318 328.302551,213.074631
	C315.134308,212.978897 317.774933,213.113602 317.705658,202.744858
	C317.589905,185.419052 317.674438,168.091949 317.664856,150.765381
	C317.661224,144.236954 317.648743,144.236954 311.026672,144.164673
	C303.869476,144.086533 303.857147,143.845963 303.726990,136.933807
	C303.646576,132.662659 305.384644,131.530060 309.367523,131.586411
	C317.604858,131.702988 317.670898,131.532623 317.647552,123.088882
	C317.637329,119.379623 318.093079,115.761421 319.285553,112.284050
	C323.430817,100.195892 339.412506,92.857315 351.345490,97.600288
	C356.283569,99.563026 353.655243,103.907967 353.871643,107.211151
	C354.071869,110.267159 351.584137,110.225143 349.275208,110.205544
	C344.992157,110.169174 340.525787,109.436241 336.922943,112.760880
	C333.699371,115.735550 331.695953,125.689735 333.459473,129.739441
	C334.095673,131.200394 335.275726,131.580841 336.675812,131.616211
	C338.507446,131.662445 340.340149,131.675552 342.172455,131.681198
	C350.021973,131.705383 350.780121,132.582642 350.120361,140.198486
	C349.893890,142.812836 348.862610,144.242081 346.132843,144.176407
	C345.300659,144.156372 344.467102,144.190720 343.634186,144.201202
	C331.921570,144.348541 333.264526,142.633224 333.199768,154.508621
	C333.159760,161.838867 333.195618,169.169525 333.197815,177.000000
z"/>
    <path fill="#032030" opacity="1.000000" stroke="none"
          d="
M275.226318,212.142227
	C269.019958,208.620941 266.289032,203.315308 265.691528,196.828232
	C264.283630,181.543594 265.343658,166.215530 265.032104,150.909836
	C264.896118,144.230179 264.995392,144.228180 258.415253,144.145340
	C251.470749,144.057922 249.056274,140.220322 251.498871,133.503403
	C252.334991,131.204132 254.061829,131.777985 255.593506,131.711273
	C265.041290,131.299637 265.043823,131.321106 265.041077,122.280762
	C265.036743,108.149483 264.621307,112.022957 276.901001,111.549011
	C279.480164,111.449471 280.489044,112.560585 280.427673,115.095993
	C280.331055,119.089394 280.501556,123.090004 280.373932,127.081642
	C280.272064,130.267609 281.672821,131.714294 284.804321,131.648254
	C286.135345,131.620178 287.467865,131.669739 288.799774,131.675003
	C296.092133,131.703842 298.308136,134.762863 296.250854,141.816711
	C295.873901,143.109039 295.220764,143.850464 293.928558,144.027573
	C293.270844,144.117752 292.603088,144.140488 291.938995,144.177979
	C280.366119,144.831360 280.371246,144.830826 280.375671,156.337097
	C280.379761,166.992950 280.321259,177.649078 280.382080,188.304565
	C280.443665,199.084625 282.919800,201.417130 293.454681,200.253983
	C296.244141,199.945999 296.947479,200.909912 297.209351,203.357956
	C298.149231,212.143723 296.625336,213.951752 287.793091,214.248795
	C283.590546,214.390106 279.487915,213.970810 275.226318,212.142227
z"/>
    <path fill="#032030" opacity="1.000000" stroke="none"
          d="
M478.956787,131.000000
	C478.932678,156.316818 478.924896,181.133667 478.874298,205.950439
	C478.860291,212.820633 478.615509,213.010056 471.918182,213.020294
	C470.585754,213.022339 469.244080,212.919434 467.922638,213.040039
	C463.983093,213.399597 462.718292,211.585464 462.728821,207.754837
	C462.820221,174.443756 462.822052,141.132141 462.713104,107.821144
	C462.700287,103.905037 464.065552,102.510376 467.954010,102.635979
	C479.670380,103.014435 478.934998,100.545380 478.968781,113.511284
	C478.983551,119.174141 478.962067,124.837090 478.956787,131.000000
z"/>
    <path fill="#032030" opacity="1.000000" stroke="none"
          d="
M746.675903,183.999908
	C746.678223,168.005768 746.792908,152.510315 746.608154,137.018417
	C746.558655,132.868744 747.980286,131.136581 752.076111,131.669006
	C752.239746,131.690262 752.408997,131.665115 752.575500,131.668152
	C757.049255,131.749786 762.625488,130.034836 761.625183,139.406311
	C767.228577,133.375717 772.591858,130.246399 779.257141,130.113846
	C782.008301,130.059113 785.783752,129.310822 786.810669,132.281509
	C788.078735,135.950195 787.832397,140.190063 786.765930,144.090317
	C786.428528,145.324158 784.837341,145.122589 783.670105,145.129501
	C781.173706,145.144257 778.660461,144.993042 776.183960,145.226501
	C768.395752,145.960693 762.335693,152.464264 762.293091,160.264069
	C762.208557,175.757736 762.112183,191.254440 762.348083,206.744904
	C762.421570,211.572388 760.772949,213.261017 755.995239,213.076553
	C746.237000,212.699799 746.649048,214.375610 746.675964,203.492722
	C746.691650,197.161819 746.676941,190.830841 746.675903,183.999908
z"/>
    <path fill="#032030" opacity="1.000000" stroke="none"
          d="
M869.492188,156.871429
	C869.314636,157.865005 869.247192,158.549271 868.947571,159.109360
	C867.767029,161.316223 865.803467,161.798004 863.509277,161.384216
	C861.962524,161.105255 861.197083,160.070663 861.399658,158.582855
	C861.707092,156.325455 862.859009,154.502060 865.156128,153.893082
	C867.340759,153.313919 869.068054,153.943848 869.492188,156.871429
z"/>
    <path fill="#032030" opacity="1.000000" stroke="none"
          d="
M892.295776,68.150337
	C897.774841,68.746254 900.202759,72.394287 897.844604,75.863953
	C896.644958,77.629143 894.932861,78.547966 892.745300,78.148888
	C890.819397,77.797523 889.354492,76.714561 888.885437,74.772041
	C888.185364,71.872910 889.022095,69.562355 892.295776,68.150337
z"/>
</svg>
