<svg version="1.1" id="Layer_1" xmlns="http://www.w3.org/2000/svg" xmlns:xlink="http://www.w3.org/1999/xlink" x="0px" y="0px"
     width="100%" viewBox="0 0 256 256" enable-background="new 0 0 256 256" xml:space="preserve">
<path fill="#032030" opacity="1.000000" stroke="none"
      d="
M86.202026,209.161682
	C90.011337,218.776489 88.032166,227.140823 81.473381,235.465454
	C84.573814,235.960724 86.957359,236.270798 89.311394,236.731689
	C94.828560,237.811905 98.210228,241.524963 98.705574,246.931305
	C99.167023,251.967682 96.480095,255.700592 91.460487,255.752548
	C75.304321,255.919830 59.137054,256.348389 42.992855,255.304688
	C41.559601,255.212021 39.758095,254.820679 38.835178,253.876465
	C35.032265,249.985855 29.884867,249.130508 25.193344,247.164429
	C4.890888,238.656281 -1.781840,213.178604 11.631352,195.751343
	C12.337626,194.833694 13.135851,193.950272 14.030944,193.222763
	C15.505532,192.024246 17.236471,191.114227 19.056253,192.301056
	C20.786222,193.429306 21.187277,195.268539 20.497467,197.179413
	C18.924257,201.537384 18.994711,206.055710 19.375675,210.523758
	C19.937473,217.112717 22.786062,222.510422 28.720440,226.536987
	C30.802526,222.795914 29.946415,219.044952 30.220097,215.593277
	C31.725225,196.610596 40.524406,181.070450 52.422581,166.883926
	C55.631676,163.057632 60.115677,159.635223 61.612823,155.214127
	C63.319813,150.173386 57.386681,146.871231 55.052364,142.685715
	C25.990797,90.577202 58.231228,26.721626 117.669777,18.932230
	C161.111877,13.239161 203.138947,44.198196 210.330688,87.303535
	C214.319351,111.210548 209.111969,132.917984 194.269257,152.204224
	C193.464737,153.249588 192.700439,154.325897 191.631424,155.775650
	C195.905411,159.866623 198.047928,166.375244 205.908798,165.556366
	C208.640045,165.271851 210.729767,167.587570 212.478333,169.665817
	C223.953857,183.305084 235.540344,196.853821 246.830597,210.644974
	C253.161255,218.377884 251.857193,229.057068 244.350647,235.194138
	C236.388657,241.703537 226.651291,241.076126 219.853989,233.210159
	C208.525543,220.100632 197.449768,206.773056 186.198944,193.595932
	C183.698669,190.667587 182.350571,187.585220 182.596451,183.608902
	C182.942261,178.015854 178.110077,175.440994 175.003311,171.932022
	C174.087585,170.897736 172.757782,171.761780 171.794128,172.369446
	C160.128723,179.725433 147.369751,183.594940 133.651688,184.505737
	C131.932266,184.619873 130.345718,185.318024 129.655289,187.073959
	C126.405296,195.339539 121.535728,203.032730 122.908524,212.712387
	C123.766792,218.764069 123.310234,225.024994 123.171921,231.185928
	C123.099472,234.413269 123.951462,236.456070 127.231697,237.619965
	C131.424973,239.107864 133.224487,242.739594 133.907166,246.884781
	C134.675980,251.552826 131.791840,255.092758 127.133476,255.381088
	C123.809692,255.586807 120.482750,255.797943 117.154427,255.862213
	C109.541298,256.009216 105.273857,253.032959 104.009674,245.670883
	C101.674019,232.069000 99.781090,218.390060 97.799911,204.729279
	C97.460892,202.391647 97.441475,199.543533 100.640015,199.342087
	C103.700119,199.149368 103.993340,201.809738 104.356461,204.244995
	C106.193565,216.565857 108.002625,228.893570 110.084641,241.174255
	C111.392204,248.886841 111.637627,249.011200 119.477196,248.660797
	C121.850266,248.554733 125.683121,250.291000 126.265259,246.659607
	C126.755363,243.602356 122.988762,243.476517 120.750626,242.702469
	C118.043465,241.766190 116.808891,240.089294 116.557266,237.210831
	C115.525154,225.403671 115.925301,213.571625 115.755737,201.750305
	C115.720619,199.301819 117.173012,197.351639 118.317131,195.330521
	C120.105309,192.171646 121.930473,189.034088 122.532280,184.816315
	C112.224556,183.584015 102.410629,181.451950 93.116966,177.253357
	C83.902603,173.090576 75.982246,167.089310 68.575157,160.278992
	C64.719719,162.114990 63.039410,165.560852 60.701569,168.249664
	C49.772709,180.819244 40.369175,194.239395 37.778469,211.292191
	C36.845703,217.431915 37.010365,223.569122 37.221851,229.732956
	C37.395061,234.781174 35.823296,236.013031 30.889011,234.843124
	C23.503197,233.091965 18.727493,228.205719 15.575994,221.598175
	C14.253904,218.826248 13.366904,215.846817 12.246606,212.867310
	C8.882381,225.473923 18.958267,239.850540 33.140881,242.472473
	C36.404724,243.075867 39.235153,243.809738 41.250134,246.650894
	C42.398514,248.270126 44.223419,248.631180 46.148193,248.630829
	C59.978939,248.628357 73.809731,248.669037 87.640373,248.636337
	C89.171181,248.632721 91.458641,249.202789 91.448860,246.677765
	C91.440468,244.510849 89.495262,243.530258 87.610947,243.439407
	C82.289764,243.182831 76.954659,243.230820 71.628441,243.055374
	C69.393066,242.981720 66.530098,243.578629 65.850990,240.496445
	C65.216019,237.614609 67.596306,236.614868 69.744995,235.483582
	C76.510735,231.921402 81.098656,226.822479 81.037453,218.632843
	C80.971176,209.765823 74.982407,203.599091 66.057907,203.251816
	C65.392029,203.225906 64.725204,203.212128 64.058838,203.213150
	C61.110424,203.217697 57.126637,203.960510 57.334602,199.578094
	C57.523899,195.589111 61.587524,195.894989 64.463150,195.963913
	C73.997635,196.192459 81.471825,200.126556 86.202026,209.161682
M90.687630,87.313034
	C96.793480,77.438545 105.854752,72.813110 117.254486,72.066597
	C128.897705,71.304146 140.467911,76.761024 144.669403,85.850174
	C146.297546,89.372322 148.781235,90.822998 152.138062,91.645020
	C156.498245,92.712746 160.890610,93.674698 165.196289,94.931618
	C168.833664,95.993439 170.552551,98.560844 170.344864,102.468437
	C169.868607,111.428223 166.761047,119.013687 159.148544,124.255280
	C153.493744,128.148865 146.995789,128.306152 140.449036,128.359726
	C133.719711,128.414780 129.514862,132.448822 129.236618,139.169617
	C129.120728,141.969055 129.398224,144.827621 129.856766,147.599762
	C131.076889,154.976074 132.666748,162.277206 132.375854,169.848434
	C132.141678,175.943832 132.761841,176.280853 139.009628,175.222916
	C153.981110,172.687775 167.056656,166.498398 178.535019,156.349365
	C209.899933,128.616837 210.964020,77.113144 180.469620,48.543697
	C147.513092,17.667538 98.783920,20.566692 69.721962,55.132656
	C48.952793,79.835266 47.412064,117.136833 66.093552,143.403091
	C66.928314,144.576767 67.499153,146.130020 69.382629,146.206711
	C69.738052,145.904846 70.242065,145.659012 70.469948,145.256760
	C77.132736,133.496033 84.808189,122.295769 83.499443,107.508232
	C82.880318,100.512733 86.825974,94.062263 90.687630,87.313034
M137.820389,121.723785
	C144.649139,121.730362 151.608826,122.215561 157.133514,116.978439
	C161.974625,112.389297 162.065079,110.374886 157.817734,105.539543
	C157.383957,105.045723 156.854507,104.487984 156.737213,103.888016
	C155.950623,99.864853 152.929642,98.783699 149.485611,98.243690
	C144.459015,97.455551 141.115967,94.790047 139.160156,89.979012
	C137.322144,85.457718 133.844849,82.518555 129.089920,80.950829
	C108.293701,74.094215 94.371002,86.776268 91.143593,105.980774
	C90.060280,112.426933 93.471207,116.851036 98.676117,119.978821
	C102.828758,122.474258 105.369080,121.630493 107.587753,117.320229
	C109.134247,114.315834 109.820724,111.060982 109.806519,107.679474
	C109.782036,101.853088 109.732018,96.026772 109.679977,90.200546
	C109.661613,88.144691 110.376892,86.425400 112.542496,86.154343
	C114.871590,85.862823 115.744995,87.738548 116.045944,89.601517
	C116.496025,92.387764 116.740585,95.217125 116.903572,98.037910
	C117.319229,105.231369 116.918007,112.404572 114.430176,119.202301
	C111.058151,128.416000 103.006302,130.982758 94.706886,125.891022
	C93.072540,124.888336 91.952019,122.952087 89.388359,122.942444
	C88.730659,124.586227 88.053223,126.264160 87.387184,127.946594
	C84.502754,135.232758 81.667267,142.627182 76.632164,148.696793
	C73.927109,151.957626 74.861702,153.681046 77.428879,156.063705
	C89.293198,167.075287 103.309875,173.411514 119.260185,175.570709
	C124.809898,176.321991 125.440315,175.480774 125.732857,169.806229
	C126.211426,160.522827 123.216454,151.735703 122.129585,142.679123
	C120.932358,132.703064 127.148102,123.745064 137.820389,121.723785
M222.520157,224.018112
	C223.698395,225.417465 224.751801,226.951141 226.081818,228.187195
	C228.575226,230.504517 231.314621,232.395447 235.030869,231.159454
	C239.010559,229.835861 241.509583,227.070312 242.348267,223.024323
	C243.247894,218.684326 240.227097,215.859909 237.827835,212.950653
	C228.085983,201.138062 218.229843,189.419800 208.467941,177.623657
	C204.226837,172.498764 204.083496,172.424133 198.684433,176.663254
	C197.114090,177.896225 195.665939,179.297653 194.029922,180.431625
	C189.969986,183.245743 190.435379,186.084625 193.390350,189.529358
	C203.032990,200.770233 212.520676,212.144058 222.520157,224.018112
M188.298828,164.321899
	C185.097382,160.794281 183.664825,163.667618 181.676346,166.050735
	C183.379364,168.168594 184.953293,170.078781 186.472885,172.031250
	C187.597900,173.476730 188.785828,173.723160 190.308441,172.590714
	C191.825180,171.462662 192.725571,170.248734 191.425354,168.426514
	C190.555908,167.208023 189.636276,166.025330 188.298828,164.321899
z"/>
    <path fill="#032030" opacity="1.000000" stroke="none"
          d="
M132.538315,45.604881
	C131.451553,45.493305 130.788086,45.437798 130.123642,45.421673
	C127.302246,45.353180 124.445007,45.078945 124.684067,41.289204
	C124.918655,37.570271 127.909645,37.648926 130.629837,37.614605
	C160.066513,37.243191 188.983749,62.992619 192.340790,92.554169
	C192.602951,94.862671 193.036713,97.158806 193.167343,99.473289
	C193.326187,102.288048 192.968781,105.111298 189.299210,105.213493
	C185.711365,105.313416 185.160126,102.519890 184.870056,99.739288
	C184.629272,97.431198 184.646088,95.075455 184.187668,92.814026
	C178.980270,67.125610 161.009277,50.117474 134.915604,46.079002
	C134.259201,45.977413 133.612427,45.813766 132.538315,45.604881
z"/>
    <path fill="#032030" opacity="1.000000" stroke="none"
          d="
M125.839523,95.196663
	C126.571304,92.389450 128.188141,91.291351 130.668320,91.555756
	C132.500931,91.751106 133.698944,92.841812 134.134766,94.591835
	C134.617859,96.531708 133.971420,98.171013 132.336044,99.342773
	C129.644516,101.271271 127.370850,99.954918 125.839523,95.196663
z"/>
</svg>